<svg width="150" height="150" viewBox="0 0 150 150" fill="none" xmlns="http://www.w3.org/2000/svg">
  <circle cx="75" cy="75" r="75" fill="black"/>
  <path d="M43.8915 78C41.3673 78 39.3253 75.5371 39.3253 72.5C39.3253 69.5086 41.3284 67 43.9304 67C45.7937 67 47.2261 67.9914 47.8805 69.7414H53.9326C53.0004 65.5571 48.8363 62.5 43.8915 62.5C38.2503 62.5 33.6692 67.0457 33.6692 72.5C33.6692 78.0086 38.2114 82.5 43.8915 82.5C48.8363 82.5 53.0393 79.4429 53.9715 75.2586H47.9194C47.2261 77.0086 45.7937 78 43.8915 78Z" fill="white"/>
  <path d="M74.2906 67.625C78.6155 67.625 82.1406 70.9371 82.1406 75.875C82.1406 80.8129 78.5766 84.125 74.2906 84.125H65.8066V67.625H74.2906ZM74.2906 63.125H60.1895V88.625H74.2906C81.4473 88.625 87.3699 83.2129 87.3699 75.875C87.3699 68.5371 81.4473 63.125 74.2906 63.125Z" fill="white"/>
  <path d="M99.2832 63.125L89.3145 88.625H95.3666L98.0687 81.325H110.171L112.873 88.625H118.925L108.956 63.125H99.2832ZM99.9765 76.825L103.55 66.3571L107.123 76.825H99.9765Z" fill="white"/>
  <path d="M125 50L115 40L105 50H125Z" fill="#FF6B00"/>
  <path d="M102 40L92 50H112L102 40Z" fill="#FF6B00"/>
</svg> 